<?xml version="1.0" encoding="utf-8"?>
<!-- Svg Vector Icons : http://www.onlinewebfonts.com/icon -->
<!DOCTYPE svg PUBLIC "-//W3C//DTD SVG 1.1//EN" "http://www.w3.org/Graphics/SVG/1.1/DTD/svg11.dtd">
<svg version="1.1" xmlns="http://www.w3.org/2000/svg" xmlns:xlink="http://www.w3.org/1999/xlink" x="0px" y="0px" viewBox="0 0 1000 1000" enable-background="new 0 0 1000 1000" xml:space="preserve">
<metadata> Svg Vector Icons : http://www.onlinewebfonts.com/icon </metadata>
<g><path d="M702.5,578.1c-113.5,0-206,92.4-206,206c0,113.5,92.4,205.9,206,205.9c113.5,0,205.9-92.4,205.9-205.9C908.4,670.5,816,578.1,702.5,578.1z M686.3,873.8l-101.9-102l24.6-24.6l77.3,77.3L810,700.9l24.6,24.6L686.3,873.8z"/><path d="M466,786.8c0-84.8,44.3-159,110.7-201.6c0-1.8-0.1-3.3-0.1-5.1c3-2.4,5.5-5.4,6.7-9.4l3.5-11.5l3.6-3c4.2-3.4,6.8-8.3,7.3-13.7c1.7-18.4,6.4-42.3,10.6-48.7c15-23.2,33.7-73.9,39.9-91.4c8.5-7.6,22.9-24.2,22.9-49c0-20.3-9.7-35.1-17.8-44c4.6-21.4,13.5-68,13.5-103.9c0-115.2-89-195.6-216.4-195.6c-0.2,0-0.4,0-0.5,0c-0.2,0-0.4,0-0.5,0C322,10,233,90.4,233,205.6c0,35.9,9,82.5,13.5,103.9c-8.2,8.8-17.8,23.6-17.8,44c0,24.8,14.4,41.4,22.9,49c6.2,17.5,24.8,68.2,39.9,91.4c4.2,6.4,8.8,30.3,10.6,48.7c0.5,5.4,3.1,10.3,7.3,13.7l3.7,3l3.5,11.5c1.2,3.9,3.7,6.9,6.7,9.4c1,36.2-4.5,66.4-11.3,70.4c-5.8,3.4-24.6,8.3-42.7,13.1c-20.6,5.4-46.2,12.1-73.6,21.3C97.1,718,88.6,760.4,92.2,782.7c6.4,38.6,56.6,65.7,122.3,65.7h217.2h36.4h6.9C469.7,828.6,466,808.2,466,786.8z"/></g>
</svg>